<svg xmlns="http://www.w3.org/2000/svg" width="480" height="328" viewBox="0 0 480 328">
<rect width="100%" height="100%" fill="#0c1222"/>
<rect x="0" y="0" width="23" height="23" fill="#101a30"/>
<rect x="24" y="0" width="23" height="23" fill="#101a30"/>
<rect x="48" y="0" width="23" height="23" fill="#101a30"/>
<rect x="72" y="0" width="23" height="23" fill="#101a30"/>
<rect x="96" y="0" width="23" height="23" fill="#101a30"/>
<rect x="120" y="0" width="23" height="23" fill="#101a30"/>
<rect x="144" y="0" width="23" height="23" fill="#101a30"/>
<rect x="168" y="0" width="23" height="23" fill="#101a30"/>
<rect x="192" y="0" width="23" height="23" fill="#101a30"/>
<rect x="216" y="0" width="23" height="23" fill="#101a30"/>
<rect x="240" y="0" width="23" height="23" fill="#101a30"/>
<rect x="264" y="0" width="23" height="23" fill="#101a30"/>
<rect x="288" y="0" width="23" height="23" fill="#101a30"/>
<rect x="312" y="0" width="23" height="23" fill="#101a30"/>
<rect x="336" y="0" width="23" height="23" fill="#101a30"/>
<rect x="360" y="0" width="23" height="23" fill="#101a30"/>
<rect x="384" y="0" width="23" height="23" fill="#101a30"/>
<rect x="408" y="0" width="23" height="23" fill="#101a30"/>
<rect x="432" y="0" width="23" height="23" fill="#101a30"/>
<rect x="456" y="0" width="23" height="23" fill="#101a30"/>
<rect x="0" y="24" width="23" height="23" fill="#0d172a"/>
<rect x="24" y="24" width="23" height="23" fill="#0d172a"/>
<rect x="48" y="24" width="23" height="23" fill="#0d172a"/>
<rect x="72" y="24" width="23" height="23" fill="#0d172a"/>
<rect x="96" y="24" width="23" height="23" fill="#0d172a"/>
<rect x="120" y="24" width="23" height="23" fill="#0d172a"/>
<rect x="144" y="24" width="23" height="23" fill="#0d172a"/>
<rect x="168" y="24" width="23" height="23" fill="#0d172a"/>
<rect x="192" y="24" width="23" height="23" fill="#0d172a"/>
<rect x="216" y="24" width="23" height="23" fill="#0d172a"/>
<rect x="240" y="24" width="23" height="23" fill="#0d172a"/>
<rect x="264" y="24" width="23" height="23" fill="#0d172a"/>
<rect x="288" y="24" width="23" height="23" fill="#0d172a"/>
<rect x="312" y="24" width="23" height="23" fill="#0d172a"/>
<rect x="336" y="24" width="23" height="23" fill="#0d172a"/>
<rect x="360" y="24" width="23" height="23" fill="#0d172a"/>
<rect x="384" y="24" width="23" height="23" fill="#0d172a"/>
<rect x="408" y="24" width="23" height="23" fill="#0d172a"/>
<rect x="432" y="24" width="23" height="23" fill="#0d172a"/>
<rect x="456" y="24" width="23" height="23" fill="#0d172a"/>
<rect x="0" y="48" width="23" height="23" fill="#101a30"/>
<rect x="24" y="48" width="23" height="23" fill="#101a30"/>
<rect x="48" y="48" width="23" height="23" fill="#101a30"/>
<rect x="72" y="48" width="23" height="23" fill="#101a30"/>
<rect x="96" y="48" width="23" height="23" fill="#101a30"/>
<rect x="120" y="48" width="23" height="23" fill="#101a30"/>
<rect x="144" y="48" width="23" height="23" fill="#101a30"/>
<rect x="168" y="48" width="23" height="23" fill="#101a30"/>
<rect x="192" y="48" width="23" height="23" fill="#101a30"/>
<rect x="216" y="48" width="23" height="23" fill="#101a30"/>
<rect x="240" y="48" width="23" height="23" fill="#101a30"/>
<rect x="264" y="48" width="23" height="23" fill="#101a30"/>
<rect x="288" y="48" width="23" height="23" fill="#101a30"/>
<rect x="312" y="48" width="23" height="23" fill="#101a30"/>
<rect x="336" y="48" width="23" height="23" fill="#101a30"/>
<rect x="360" y="48" width="23" height="23" fill="#101a30"/>
<rect x="384" y="48" width="23" height="23" fill="#101a30"/>
<rect x="408" y="48" width="23" height="23" fill="#101a30"/>
<rect x="432" y="48" width="23" height="23" fill="#101a30"/>
<rect x="456" y="48" width="23" height="23" fill="#101a30"/>
<rect x="0" y="72" width="23" height="23" fill="#0d172a"/>
<rect x="24" y="72" width="23" height="23" fill="#0d172a"/>
<rect x="48" y="72" width="23" height="23" fill="#0d172a"/>
<rect x="72" y="72" width="23" height="23" fill="#0d172a"/>
<rect x="96" y="72" width="23" height="23" fill="#0d172a"/>
<rect x="120" y="72" width="23" height="23" fill="#0d172a"/>
<rect x="144" y="72" width="23" height="23" fill="#0d172a"/>
<rect x="168" y="72" width="23" height="23" fill="#0d172a"/>
<rect x="192" y="72" width="23" height="23" fill="#0d172a"/>
<rect x="216" y="72" width="23" height="23" fill="#0d172a"/>
<rect x="240" y="72" width="23" height="23" fill="#0d172a"/>
<rect x="264" y="72" width="23" height="23" fill="#0d172a"/>
<rect x="288" y="72" width="23" height="23" fill="#0d172a"/>
<rect x="312" y="72" width="23" height="23" fill="#0d172a"/>
<rect x="336" y="72" width="23" height="23" fill="#0d172a"/>
<rect x="360" y="72" width="23" height="23" fill="#0d172a"/>
<rect x="384" y="72" width="23" height="23" fill="#0d172a"/>
<rect x="408" y="72" width="23" height="23" fill="#0d172a"/>
<rect x="432" y="72" width="23" height="23" fill="#0d172a"/>
<rect x="456" y="72" width="23" height="23" fill="#0d172a"/>
<rect x="0" y="96" width="23" height="23" fill="#101a30"/>
<rect x="24" y="96" width="23" height="23" fill="#101a30"/>
<rect x="48" y="96" width="23" height="23" fill="#101a30"/>
<rect x="72" y="96" width="23" height="23" fill="#101a30"/>
<rect x="96" y="96" width="23" height="23" fill="#101a30"/>
<rect x="120" y="96" width="23" height="23" fill="#101a30"/>
<rect x="144" y="96" width="23" height="23" fill="#101a30"/>
<rect x="168" y="96" width="23" height="23" fill="#101a30"/>
<rect x="192" y="96" width="23" height="23" fill="#101a30"/>
<rect x="216" y="96" width="23" height="23" fill="#101a30"/>
<rect x="240" y="96" width="23" height="23" fill="#101a30"/>
<rect x="264" y="96" width="23" height="23" fill="#101a30"/>
<rect x="288" y="96" width="23" height="23" fill="#101a30"/>
<rect x="312" y="96" width="23" height="23" fill="#101a30"/>
<rect x="336" y="96" width="23" height="23" fill="#101a30"/>
<rect x="360" y="96" width="23" height="23" fill="#101a30"/>
<rect x="384" y="96" width="23" height="23" fill="#101a30"/>
<rect x="408" y="96" width="23" height="23" fill="#101a30"/>
<rect x="432" y="96" width="23" height="23" fill="#101a30"/>
<rect x="456" y="96" width="23" height="23" fill="#101a30"/>
<rect x="0" y="120" width="23" height="23" fill="#0d172a"/>
<rect x="24" y="120" width="23" height="23" fill="#0d172a"/>
<rect x="48" y="120" width="23" height="23" fill="#0d172a"/>
<rect x="72" y="120" width="23" height="23" fill="#0d172a"/>
<rect x="96" y="120" width="23" height="23" fill="#0d172a"/>
<rect x="120" y="120" width="23" height="23" fill="#0d172a"/>
<rect x="144" y="120" width="23" height="23" fill="#0d172a"/>
<rect x="168" y="120" width="23" height="23" fill="#0d172a"/>
<rect x="192" y="120" width="23" height="23" fill="#0d172a"/>
<rect x="216" y="120" width="23" height="23" fill="#0d172a"/>
<rect x="240" y="120" width="23" height="23" fill="#0d172a"/>
<rect x="264" y="120" width="23" height="23" fill="#0d172a"/>
<rect x="288" y="120" width="23" height="23" fill="#0d172a"/>
<rect x="312" y="120" width="23" height="23" fill="#0d172a"/>
<rect x="336" y="120" width="23" height="23" fill="#0d172a"/>
<rect x="360" y="120" width="23" height="23" fill="#0d172a"/>
<rect x="384" y="120" width="23" height="23" fill="#0d172a"/>
<rect x="408" y="120" width="23" height="23" fill="#0d172a"/>
<rect x="432" y="120" width="23" height="23" fill="#0d172a"/>
<rect x="456" y="120" width="23" height="23" fill="#0d172a"/>
<rect x="0" y="144" width="23" height="23" fill="#101a30"/>
<rect x="24" y="144" width="23" height="23" fill="#101a30"/>
<rect x="48" y="144" width="23" height="23" fill="#101a30"/>
<rect x="72" y="144" width="23" height="23" fill="#101a30"/>
<rect x="96" y="144" width="23" height="23" fill="#101a30"/>
<rect x="120" y="144" width="23" height="23" fill="#101a30"/>
<rect x="144" y="144" width="23" height="23" fill="#101a30"/>
<rect x="168" y="144" width="23" height="23" fill="#101a30"/>
<rect x="192" y="144" width="23" height="23" fill="#101a30"/>
<rect x="216" y="144" width="23" height="23" fill="#101a30"/>
<rect x="240" y="144" width="23" height="23" fill="#101a30"/>
<rect x="264" y="144" width="23" height="23" fill="#101a30"/>
<rect x="288" y="144" width="23" height="23" fill="#101a30"/>
<rect x="312" y="144" width="23" height="23" fill="#101a30"/>
<rect x="336" y="144" width="23" height="23" fill="#101a30"/>
<rect x="360" y="144" width="23" height="23" fill="#101a30"/>
<rect x="384" y="144" width="23" height="23" fill="#101a30"/>
<rect x="408" y="144" width="23" height="23" fill="#101a30"/>
<rect x="432" y="144" width="23" height="23" fill="#101a30"/>
<rect x="456" y="144" width="23" height="23" fill="#101a30"/>
<rect x="0" y="168" width="23" height="23" fill="#0d172a"/>
<rect x="24" y="168" width="23" height="23" fill="#0d172a"/>
<rect x="48" y="168" width="23" height="23" fill="#0d172a"/>
<rect x="72" y="168" width="23" height="23" fill="#0d172a"/>
<rect x="96" y="168" width="23" height="23" fill="#0d172a"/>
<rect x="120" y="168" width="23" height="23" fill="#0d172a"/>
<rect x="144" y="168" width="23" height="23" fill="#0d172a"/>
<rect x="168" y="168" width="23" height="23" fill="#0d172a"/>
<rect x="192" y="168" width="23" height="23" fill="#0d172a"/>
<rect x="216" y="168" width="23" height="23" fill="#0d172a"/>
<rect x="240" y="168" width="23" height="23" fill="#0d172a"/>
<rect x="264" y="168" width="23" height="23" fill="#0d172a"/>
<rect x="288" y="168" width="23" height="23" fill="#0d172a"/>
<rect x="312" y="168" width="23" height="23" fill="#0d172a"/>
<rect x="336" y="168" width="23" height="23" fill="#0d172a"/>
<rect x="360" y="168" width="23" height="23" fill="#0d172a"/>
<rect x="384" y="168" width="23" height="23" fill="#0d172a"/>
<rect x="408" y="168" width="23" height="23" fill="#0d172a"/>
<rect x="432" y="168" width="23" height="23" fill="#0d172a"/>
<rect x="456" y="168" width="23" height="23" fill="#0d172a"/>
<rect x="0" y="192" width="23" height="23" fill="#101a30"/>
<rect x="24" y="192" width="23" height="23" fill="#101a30"/>
<rect x="48" y="192" width="23" height="23" fill="#101a30"/>
<rect x="72" y="192" width="23" height="23" fill="#101a30"/>
<rect x="96" y="192" width="23" height="23" fill="#101a30"/>
<rect x="120" y="192" width="23" height="23" fill="#101a30"/>
<rect x="144" y="192" width="23" height="23" fill="#101a30"/>
<rect x="168" y="192" width="23" height="23" fill="#101a30"/>
<rect x="192" y="192" width="23" height="23" fill="#101a30"/>
<rect x="216" y="192" width="23" height="23" fill="#101a30"/>
<rect x="240" y="192" width="23" height="23" fill="#101a30"/>
<rect x="264" y="192" width="23" height="23" fill="#101a30"/>
<rect x="288" y="192" width="23" height="23" fill="#101a30"/>
<rect x="312" y="192" width="23" height="23" fill="#101a30"/>
<rect x="336" y="192" width="23" height="23" fill="#101a30"/>
<rect x="360" y="192" width="23" height="23" fill="#101a30"/>
<rect x="384" y="192" width="23" height="23" fill="#101a30"/>
<rect x="408" y="192" width="23" height="23" fill="#101a30"/>
<rect x="432" y="192" width="23" height="23" fill="#101a30"/>
<rect x="456" y="192" width="23" height="23" fill="#101a30"/>
<rect x="0" y="216" width="23" height="23" fill="#0d172a"/>
<rect x="24" y="216" width="23" height="23" fill="#0d172a"/>
<rect x="48" y="216" width="23" height="23" fill="#0d172a"/>
<rect x="72" y="216" width="23" height="23" fill="#0d172a"/>
<rect x="96" y="216" width="23" height="23" fill="#0d172a"/>
<rect x="120" y="216" width="23" height="23" fill="#0d172a"/>
<rect x="144" y="216" width="23" height="23" fill="#0d172a"/>
<rect x="168" y="216" width="23" height="23" fill="#0d172a"/>
<rect x="192" y="216" width="23" height="23" fill="#0d172a"/>
<rect x="216" y="216" width="23" height="23" fill="#0d172a"/>
<rect x="240" y="216" width="23" height="23" fill="#0d172a"/>
<rect x="264" y="216" width="23" height="23" fill="#0d172a"/>
<rect x="288" y="216" width="23" height="23" fill="#0d172a"/>
<rect x="312" y="216" width="23" height="23" fill="#0d172a"/>
<rect x="336" y="216" width="23" height="23" fill="#0d172a"/>
<rect x="360" y="216" width="23" height="23" fill="#0d172a"/>
<rect x="384" y="216" width="23" height="23" fill="#0d172a"/>
<rect x="408" y="216" width="23" height="23" fill="#0d172a"/>
<rect x="432" y="216" width="23" height="23" fill="#0d172a"/>
<rect x="456" y="216" width="23" height="23" fill="#0d172a"/>
<rect x="0" y="240" width="23" height="23" fill="#101a30"/>
<rect x="24" y="240" width="23" height="23" fill="#101a30"/>
<rect x="48" y="240" width="23" height="23" fill="#101a30"/>
<rect x="72" y="240" width="23" height="23" fill="#101a30"/>
<rect x="96" y="240" width="23" height="23" fill="#101a30"/>
<rect x="120" y="240" width="23" height="23" fill="#101a30"/>
<rect x="144" y="240" width="23" height="23" fill="#101a30"/>
<rect x="168" y="240" width="23" height="23" fill="#101a30"/>
<rect x="192" y="240" width="23" height="23" fill="#101a30"/>
<rect x="216" y="240" width="23" height="23" fill="#101a30"/>
<rect x="240" y="240" width="23" height="23" fill="#101a30"/>
<rect x="264" y="240" width="23" height="23" fill="#101a30"/>
<rect x="288" y="240" width="23" height="23" fill="#101a30"/>
<rect x="312" y="240" width="23" height="23" fill="#101a30"/>
<rect x="336" y="240" width="23" height="23" fill="#101a30"/>
<rect x="360" y="240" width="23" height="23" fill="#101a30"/>
<rect x="384" y="240" width="23" height="23" fill="#101a30"/>
<rect x="408" y="240" width="23" height="23" fill="#101a30"/>
<rect x="432" y="240" width="23" height="23" fill="#101a30"/>
<rect x="456" y="240" width="23" height="23" fill="#101a30"/>
<rect x="0" y="264" width="23" height="23" fill="#0d172a"/>
<rect x="24" y="264" width="23" height="23" fill="#0d172a"/>
<rect x="48" y="264" width="23" height="23" fill="#0d172a"/>
<rect x="72" y="264" width="23" height="23" fill="#0d172a"/>
<rect x="96" y="264" width="23" height="23" fill="#0d172a"/>
<rect x="120" y="264" width="23" height="23" fill="#0d172a"/>
<rect x="144" y="264" width="23" height="23" fill="#0d172a"/>
<rect x="168" y="264" width="23" height="23" fill="#0d172a"/>
<rect x="192" y="264" width="23" height="23" fill="#0d172a"/>
<rect x="216" y="264" width="23" height="23" fill="#0d172a"/>
<rect x="240" y="264" width="23" height="23" fill="#0d172a"/>
<rect x="264" y="264" width="23" height="23" fill="#0d172a"/>
<rect x="288" y="264" width="23" height="23" fill="#0d172a"/>
<rect x="312" y="264" width="23" height="23" fill="#0d172a"/>
<rect x="336" y="264" width="23" height="23" fill="#0d172a"/>
<rect x="360" y="264" width="23" height="23" fill="#0d172a"/>
<rect x="384" y="264" width="23" height="23" fill="#0d172a"/>
<rect x="408" y="264" width="23" height="23" fill="#0d172a"/>
<rect x="432" y="264" width="23" height="23" fill="#0d172a"/>
<rect x="456" y="264" width="23" height="23" fill="#0d172a"/>
<rect x="51" y="147" width="18" height="18" rx="4" fill="#30e060"/>
<rect x="315" y="147" width="18" height="18" rx="4" fill="#ff4a4a"/>
<circle cx="108.0" cy="156.0" r="4" fill="#ffd84d"/>
<circle cx="156.0" cy="156.0" r="4" fill="#ffd84d"/>
<circle cx="204.0" cy="156.0" r="4" fill="#ffd84d"/>
<circle cx="252.0" cy="156.0" r="4" fill="#ffd84d"/>
<circle cx="300.0" cy="156.0" r="4" fill="#ffd84d"/>
<text x="10" y="310" fill="#e6efff" font-family="monospace" font-size="16">Jules Arcade Showcase — Wave 3 | HP: 85 | Score: 120</text>
</svg>